# xmcd CD database file
#
# Track frame offsets:
#	150
#	14022
#	26787
#	40367
#	54370
#	70728
#	85470
#	96624
#	118207
#	132586
#	147183
#	162802
#	185206
#	199893
#	210213
#	231455
#
# Disc length: 3265 seconds
#
# Revision: 2
# Processed by: cddbd v1.5.2PL0 Copyright (c) Steve Scherf et al.
# Submitted via: CDex 1.51
#
DISCID=f70cbf10
DTITLE=Big Bill Broonzy - See See Rider
DYEAR=1990
DGENRE=Blues
TTITLE0=Mountain Blues
TTITLE1=I want to go home
TTITLE2=At the break of day
TTITLE3=The sun gonna shine in my door someday
TTITLE4=The southern blues
TTITLE5=I can´t make you satisfied
TTITLE6=St. Louis Blues
TTITLE7=Feelin´ lowdown
TTITLE8=All I got belongs to you
TTITLE9=Baby please don´t go
TTITLE10=In the evenin´
TTITLE11=Ridin´ on down
TTITLE12=Treat everybody right
TTITLE13=Sixteen tons
TTITLE14=I got up one mornin´ blues
TTITLE15=See see rider
EXTD=YEAR: 1990
EXTT0=
EXTT1=
EXTT2=
EXTT3=
EXTT4=
EXTT5=
EXTT6=
EXTT7=
EXTT8=
EXTT9=
EXTT10=
EXTT11=
EXTT12=
EXTT13=
EXTT14=
EXTT15=
PLAYORDER=
